<?xml version="1.0" encoding="UTF-8" standalone="no"?>
<!-- Created with Inkscape (http://www.inkscape.org/) -->

<svg
   width="135.71373mm"
   height="49.212532mm"
   viewBox="0 0 135.71373 49.212532"
   version="1.1"
   id="svg5"
   xmlns="http://www.w3.org/2000/svg"
   xmlns:svg="http://www.w3.org/2000/svg">
  <defs
     id="defs2" />
  <g
     id="layer1"
     transform="translate(-32.707415,-27.569152)">
    <g
       aria-label="recoil.org"
       id="text236"
       style="font-size:35.2778px;font-family:Pacifico;-inkscape-font-specification:'Pacifico, Normal ';stroke-width:2;stroke-linejoin:bevel">
      <path
         d="m 35.141584,60.906675 q -1.340557,0 -1.905002,-1.411112 -0.529167,-1.411112 -0.529167,-4.515559 0,-4.586114 1.305279,-8.713617 0.3175,-1.023056 1.023056,-1.481668 0.740834,-0.493889 2.046113,-0.493889 0.705556,0 0.987778,0.176389 0.282223,0.176389 0.282223,0.670278 0,0.564445 -0.529167,2.540002 -0.352778,1.411112 -0.564445,2.469446 -0.211667,1.058334 -0.352778,2.610558 1.164167,-3.033891 2.610557,-4.938893 1.44639,-1.905001 2.822224,-2.71639 1.411112,-0.81139 2.57528,-0.81139 2.293057,0 2.293057,2.293057 0,0.458612 -0.3175,2.222502 -0.282223,1.411112 -0.282223,1.76389 0,1.234723 0.881945,1.234723 0.987779,0 2.540002,-1.552223 0.458611,-0.458612 0.952501,-0.458612 0.458611,0 0.705556,0.423334 0.282222,0.388056 0.282222,1.058334 0,1.305278 -0.705556,2.046112 -0.987778,1.023057 -2.328335,1.76389 -1.305279,0.705556 -2.786946,0.705556 -1.869724,0 -2.857502,-0.9525 -0.952501,-0.952501 -0.952501,-2.57528 0,-0.529167 0.105834,-1.058334 0.07055,-0.705556 0.07055,-0.9525 0,-0.564445 -0.388056,-0.564445 -0.529167,0 -1.411112,1.199445 -0.846667,1.164167 -1.693334,3.104447 -0.846667,1.940279 -1.375834,4.092225 -0.388056,1.658056 -0.917223,2.257779 -0.493889,0.564445 -1.587501,0.564445 z"
         id="path1891" />
      <path
         d="m 64.422157,52.863336 q 0.458611,0 0.705556,0.423334 0.282222,0.423333 0.282222,1.164167 0,1.411112 -0.670278,2.187224 -1.305279,1.587501 -3.704169,2.928057 -2.363613,1.340557 -5.080004,1.340557 -3.704169,0 -5.750281,-2.010835 -2.046113,-2.010835 -2.046113,-5.503337 0,-2.434168 1.023056,-4.515559 1.023057,-2.116668 2.822224,-3.351391 1.834446,-1.234723 4.127503,-1.234723 2.046113,0 3.280836,1.234723 1.234723,1.199445 1.234723,3.280836 0,2.434168 -1.76389,4.198058 -1.728613,1.728612 -5.891393,2.751669 0.881945,1.622779 3.351391,1.622779 1.587501,0 3.598336,-1.093612 2.046112,-1.12889 3.52778,-2.928058 0.423334,-0.493889 0.952501,-0.493889 z m -8.890006,-5.115281 q -1.305279,0 -2.222502,1.516945 -0.881945,1.516946 -0.881945,3.668892 v 0.07055 q 2.08139,-0.493889 3.280836,-1.481668 1.199445,-0.987778 1.199445,-2.293057 0,-0.670278 -0.388056,-1.058334 -0.352778,-0.423333 -0.987778,-0.423333 z"
         id="path1893" />
      <path
         d="m 69.290482,60.906675 q -3.457225,0 -5.397504,-1.940279 -1.905001,-1.975557 -1.905001,-5.185837 0,-2.857502 1.128889,-5.009448 1.12889,-2.151946 2.928058,-3.316113 1.799168,-1.164168 3.774725,-1.164168 1.940279,0 2.998613,1.164168 1.093612,1.128889 1.093612,2.928057 0,1.481668 -0.670279,2.504724 -0.635,1.023056 -1.693334,1.023056 -0.670278,0 -1.093612,-0.3175 -0.388056,-0.3175 -0.388056,-0.881945 0,-0.246945 0.07056,-0.564445 0.07056,-0.3175 0.105833,-0.458611 0.176389,-0.529167 0.176389,-0.987779 0,-0.458611 -0.246944,-0.705556 -0.211667,-0.246944 -0.635001,-0.246944 -0.811389,0 -1.516945,0.740834 -0.705556,0.705556 -1.12889,1.940279 -0.423334,1.234723 -0.423334,2.71639 0,4.092225 3.563058,4.092225 1.44639,0 3.104447,-0.9525 1.693334,-0.987779 3.316113,-2.928058 0.423334,-0.493889 0.952501,-0.493889 0.458611,0 0.705556,0.423334 0.282222,0.423333 0.282222,1.164167 0,1.340556 -0.670278,2.187224 -1.658057,2.046112 -3.986391,3.175002 -2.293058,1.093612 -4.445003,1.093612 z"
         id="path1895" />
      <path
         d="m 93.526331,49.900001 q 0.458612,0 0.705556,0.458611 0.246945,0.458611 0.246945,1.164167 0,1.693335 -1.023056,2.010835 -2.116668,0.740834 -4.65667,0.846667 -0.670278,2.963336 -2.645835,4.762504 -1.975557,1.76389 -4.480281,1.76389 -2.116668,0 -3.633613,-1.023057 -1.481668,-1.023056 -2.25778,-2.71639 -0.776111,-1.693335 -0.776111,-3.668892 0,-2.681113 1.023056,-4.762503 1.023056,-2.116668 2.822224,-3.280835 1.799168,-1.199446 3.986392,-1.199446 2.681112,0 4.303891,1.869724 1.658057,1.834445 1.940279,4.550836 1.658057,-0.105833 3.951114,-0.705556 0.282223,-0.07055 0.493889,-0.07055 z m -11.571119,7.267227 q 1.12889,0 1.94028,-0.917223 0.846667,-0.917223 1.128889,-2.645835 -1.093612,-0.740834 -1.693334,-1.940279 -0.564445,-1.199446 -0.564445,-2.540002 0,-0.564445 0.105833,-1.12889 h -0.176389 q -1.411112,0 -2.363612,1.375835 -0.917223,1.340556 -0.917223,3.810002 0,1.940279 0.740834,2.963335 0.776111,1.023057 1.799167,1.023057 z"
         id="path1897" />
      <path
         d="m 96.066342,41.962495 q -1.481668,0 -2.222502,-0.670278 -0.740833,-0.705556 -0.740833,-1.940279 0,-1.234723 0.9525,-2.046113 0.987779,-0.846667 2.434169,-0.846667 1.305278,0 2.116668,0.635001 0.811389,0.635 0.811389,1.799168 0,1.411112 -0.917223,2.257779 -0.917223,0.811389 -2.434168,0.811389 z m -0.282222,18.94418 q -2.293058,0 -3.351392,-1.622779 -1.023056,-1.622779 -1.023056,-4.303892 0,-1.587501 0.388056,-4.056947 0.423334,-2.504724 1.058334,-4.65667 0.3175,-1.12889 0.846667,-1.552223 0.529167,-0.423334 1.693335,-0.423334 1.799168,0 1.799168,1.199445 0,0.881945 -0.670279,4.092225 -0.846667,3.880559 -0.846667,5.256393 0,1.058334 0.282223,1.622779 0.282222,0.564444 0.9525,0.564444 0.635001,0 1.587501,-0.881945 0.952501,-0.881945 2.54,-2.786946 0.42334,-0.493889 0.9525,-0.493889 0.45861,0 0.70556,0.423334 0.28222,0.423333 0.28222,1.164167 0,1.411112 -0.67028,2.187224 -3.492499,4.268614 -6.52639,4.268614 z"
         id="path1899" />
      <path
         d="m 110.31858,55.756116 q 0.38806,-0.352778 0.77611,-0.352778 0.42333,0 0.67028,0.493889 0.28222,0.458611 0.28222,1.128889 0,1.481668 -1.05833,2.363613 -1.83445,1.516946 -4.16278,1.516946 -3.35139,0 -4.90362,-2.786947 -1.55222,-2.822224 -1.55222,-7.337782 0,-4.303892 1.09361,-9.807229 1.12889,-5.503337 3.28084,-9.454451 2.18722,-3.951114 5.18583,-3.951114 1.69334,0 2.64584,1.587501 0.98778,1.552224 0.98778,4.480281 0,4.198058 -2.32834,9.736673 -2.29305,5.538615 -6.27945,10.936119 0.24695,1.44639 0.88195,2.08139 0.635,0.635 1.72861,0.635 0.59972,0 1.34056,-0.352778 0.77611,-0.352778 1.41111,-0.917222 z m -1.16417,-24.694461 q -0.81139,0 -1.83444,2.928057 -1.02306,2.928058 -1.79917,7.267227 -0.77611,4.33917 -0.84667,8.325561 2.50473,-4.127502 3.98639,-8.255005 1.48167,-4.162781 1.48167,-7.584728 0,-2.681112 -0.98778,-2.681112 z"
         id="path1901" />
      <path
         d="m 116.95084,60.906675 q -1.55222,0 -2.36361,-0.846668 -0.77611,-0.846667 -0.77611,-2.222501 0,-1.587501 0.88194,-2.540002 0.91723,-0.9525 2.54,-0.9525 1.55223,0 2.32834,0.776111 0.81139,0.740834 0.81139,2.222502 0,1.622779 -0.91722,2.610557 -0.91723,0.952501 -2.50473,0.952501 z"
         id="path1903" />
      <path
         d="m 140.86918,49.900001 q 0.45861,0 0.70555,0.458611 0.24695,0.458611 0.24695,1.164167 0,1.693335 -1.02306,2.010835 -2.11667,0.740834 -4.65667,0.846667 -0.67028,2.963336 -2.64583,4.762504 -1.97556,1.76389 -4.48028,1.76389 -2.11667,0 -3.63362,-1.023057 -1.48167,-1.023056 -2.25778,-2.71639 -0.77611,-1.693335 -0.77611,-3.668892 0,-2.681113 1.02306,-4.762503 1.02305,-2.116668 2.82222,-3.280835 1.79917,-1.199446 3.98639,-1.199446 2.68112,0 4.3039,1.869724 1.65805,1.834445 1.94027,4.550836 1.65806,-0.105833 3.95112,-0.705556 0.28222,-0.07055 0.49389,-0.07055 z m -11.57112,7.267227 q 1.12889,0 1.94028,-0.917223 0.84666,-0.917223 1.12889,-2.645835 -1.09361,-0.740834 -1.69334,-1.940279 -0.56444,-1.199446 -0.56444,-2.540002 0,-0.564445 0.10583,-1.12889 h -0.17639 q -1.41111,0 -2.36361,1.375835 -0.91722,1.340556 -0.91722,3.810002 0,1.940279 0.74083,2.963335 0.77611,1.023057 1.79917,1.023057 z"
         id="path1905" />
      <path
         d="m 141.29252,60.906675 q -1.34056,0 -1.90501,-1.411112 -0.52916,-1.411112 -0.52916,-4.515559 0,-4.586114 1.30528,-8.713617 0.3175,-1.023056 1.02305,-1.481668 0.74084,-0.493889 2.04612,-0.493889 0.70555,0 0.98777,0.176389 0.28223,0.176389 0.28223,0.670278 0,0.564445 -0.52917,2.540002 -0.35278,1.411112 -0.56445,2.469446 -0.21166,1.058334 -0.35277,2.610558 1.16416,-3.033891 2.61055,-4.938893 1.44639,-1.905001 2.82223,-2.71639 1.41111,-0.81139 2.57528,-0.81139 2.29305,0 2.29305,2.293057 0,0.458612 -0.3175,2.222502 -0.28222,1.411112 -0.28222,1.76389 0,1.234723 0.88195,1.234723 0.98777,0 2.54,-1.552223 0.45861,-0.458612 0.9525,-0.458612 0.45861,0 0.70555,0.423334 0.28223,0.388056 0.28223,1.058334 0,1.305278 -0.70556,2.046112 -0.98778,1.023057 -2.32833,1.76389 -1.30528,0.705556 -2.78695,0.705556 -1.86972,0 -2.8575,-0.9525 -0.9525,-0.952501 -0.9525,-2.57528 0,-0.529167 0.10583,-1.058334 0.0706,-0.705556 0.0706,-0.9525 0,-0.564445 -0.38806,-0.564445 -0.52917,0 -1.41111,1.199445 -0.84667,1.164167 -1.69334,3.104447 -0.84666,1.940279 -1.37583,4.092225 -0.38806,1.658056 -0.91722,2.257779 -0.49389,0.564445 -1.5875,0.564445 z"
         id="path1907" />
      <path
         d="m 166.79837,45.454998 q 0.88194,0 1.23472,0.282222 0.38805,0.246945 0.38805,1.023056 0,0.423334 -0.0353,0.670278 -0.14111,1.093612 -0.88195,5.644449 -0.52916,3.069168 -0.67028,4.056947 -1.34055,9.101673 -3.63361,14.358065 -2.25778,5.29167 -6.06778,5.29167 -1.79917,0 -2.92806,-1.128889 -1.12889,-1.093612 -1.12889,-2.89278 0,-2.504724 1.97556,-5.397504 1.97556,-2.857502 7.40834,-7.05556 l 0.21166,-1.375834 q -0.59972,0.9525 -1.5875,1.481667 -0.9525,0.49389 -1.905,0.49389 -2.18722,0 -3.4925,-1.587501 -1.30528,-1.587501 -1.30528,-4.162781 0,-2.822224 1.30528,-5.326948 1.30528,-2.540002 3.45722,-4.056947 2.18723,-1.552223 4.6214,-1.552223 0.77611,0 1.02305,0.3175 0.28222,0.282222 0.45861,1.058334 0.67028,-0.141111 1.55223,-0.141111 z m -6.35001,11.888619 q 0.81139,0 1.55223,-0.987779 0.74083,-0.987778 1.05833,-2.822224 l 1.12889,-6.032504 q -1.44639,0.03528 -2.68111,1.12889 -1.23473,1.058334 -1.97556,2.822224 -0.74083,1.76389 -0.74083,3.739447 0,1.093612 0.42333,1.622779 0.45861,0.529167 1.23472,0.529167 z m -2.92806,16.016122 q 0.88195,0 1.97556,-2.116669 1.12889,-2.116668 2.15195,-6.73806 -2.71639,2.328335 -3.91584,4.198059 -1.19944,1.869723 -1.19944,3.280835 0,0.599723 0.21166,0.987779 0.24695,0.388056 0.77611,0.388056 z"
         id="path1909" />
    </g>
  </g>
  <g
     id="layer2"
     transform="matrix(1.0008836,0,0,1,-0.13634992,-2.987571)"
     style="display:none">
    <path
       id="path1004"
       style="font-size:46.3483px;font-family:Inter;-inkscape-font-specification:'Inter, @wght=900';font-variation-settings:'wght' 900;fill:#000000;fill-opacity:1;fill-rule:evenodd;stroke:none;stroke-width:1.60871;stroke-linejoin:bevel;stroke-dasharray:none;stroke-opacity:1;paint-order:normal"
       d="M 0.15190522,9.2122704 V 36.325504 H 7.5124525 V 27.37588 h 2.5475935 l 4.760581,8.949624 h 7.996094 L 17.310442,26.216182 c 1.406554,-0.674931 2.509582,-1.6341 3.308673,-2.878045 0.864935,-1.332707 1.297282,-2.969774 1.297282,-4.911466 0,-1.924039 -0.419336,-3.574533 -1.257793,-4.951368 C 19.820145,12.098468 18.646336,11.043829 17.137113,10.311282 15.627889,9.578734 13.867175,9.2122704 11.854876,9.2122704 Z M 7.5124525,15.090567 h 2.5949795 c 0.864936,0 1.601923,0.11917 2.210907,0.357469 0.617812,0.229473 1.09002,0.591045 1.416578,1.085294 0.335383,0.485423 0.502952,1.116664 0.502952,1.893341 0,0.767851 -0.167569,1.390141 -0.502952,1.86674 -0.326558,0.476596 -0.798766,0.825159 -1.416578,1.045806 -0.608984,0.211821 -1.345971,0.317566 -2.210907,0.317566 H 7.5124525 Z" />
    <path
       d="M 25.040857,36.325461 V 9.2123605 H 44.581354 V 15.143351 H 32.401641 v 4.660065 h 11.173563 v 5.93099 H 32.401641 v 4.660066 h 12.126758 v 5.930989 z"
       style="font-size:46.3483px;font-family:Inter;-inkscape-font-specification:'Inter, @wght=900';font-variation-settings:'wght' 900;fill:#000000;fill-opacity:1;stroke-width:27.6489;stroke-linejoin:bevel"
       id="path1006" />
    <path
       d="m 73.547922,19.379774 h -7.466696 q -0.07939,-0.926718 -0.423638,-1.68133 -0.330975,-0.754613 -0.926722,-1.297405 -0.582506,-0.55603 -1.41655,-0.847283 -0.834045,-0.304494 -1.893156,-0.304494 -1.853428,0 -3.137595,0.90024 -1.270927,0.900239 -1.932868,2.58157 -0.648702,1.68133 -0.648702,4.03784 0,2.488897 0.66194,4.170227 0.675181,1.66809 1.946108,2.515376 1.270929,0.834046 3.058166,0.834046 1.019392,0 1.826957,-0.251539 0.807566,-0.264775 1.403312,-0.754612 0.595753,-0.489837 0.96644,-1.178255 0.38392,-0.701658 0.516308,-1.575419 l 7.466696,0.05296 q -0.132389,1.721046 -0.966433,3.508287 -0.834045,1.774001 -2.369753,3.283227 -1.522459,1.495987 -3.773062,2.409465 -2.250595,0.913479 -5.229332,0.913479 -3.733346,0 -6.698842,-1.601897 -2.952255,-1.601898 -4.673302,-4.71302 -1.707807,-3.111122 -1.707807,-7.612321 0,-4.527676 1.747524,-7.62556 1.747524,-3.111121 4.713019,-4.69978 2.965496,-1.6018976 6.619408,-1.6018976 2.568331,0 4.726255,0.7016579 2.157933,0.7016577 3.786304,2.0520157 1.628376,1.337122 2.62129,3.296467 0.992912,1.959345 1.204731,4.48796 z"
       style="font-size:46.3483px;font-family:Inter;-inkscape-font-specification:'Inter, @wght=900';font-variation-settings:'wght' 900;fill:#000000;fill-opacity:1;stroke-width:27.6489;stroke-linejoin:bevel"
       id="path1008" />
    <path
       d="m 103.14988,22.768912 q 0,4.527675 -1.76075,7.638798 -1.760763,3.097884 -4.752735,4.69978 -2.991982,1.588659 -6.672372,1.588659 -3.706865,0 -6.698842,-1.601898 -2.97873,-1.615134 -4.739497,-4.713019 -1.747518,-3.111123 -1.747518,-7.61232 0,-4.527677 1.747518,-7.625561 1.760767,-3.111122 4.739497,-4.69978 2.991977,-1.6018977 6.698842,-1.6018977 3.68039,0 6.672372,1.6018977 2.991972,1.588658 4.752735,4.69978 1.76075,3.097884 1.76075,7.625561 z m -7.572597,0 q 0,-2.435944 -0.648693,-4.104035 -0.635465,-1.681329 -1.893159,-2.541852 -1.244451,-0.873763 -3.071408,-0.873763 -1.826957,0 -3.084639,0.873763 -1.244451,0.860523 -1.893155,2.541852 -0.635466,1.668091 -0.635466,4.104035 0,2.435942 0.635466,4.117272 0.648704,1.668091 1.893155,2.541854 1.257682,0.860523 3.084639,0.860523 1.826957,0 3.071408,-0.860523 1.257694,-0.873763 1.893159,-2.541854 0.648693,-1.68133 0.648693,-4.117272 z"
       style="font-size:46.3483px;font-family:Inter;-inkscape-font-specification:'Inter, @wght=900';font-variation-settings:'wght' 900;fill:#000000;fill-opacity:1;stroke-width:27.6489;stroke-linejoin:bevel"
       id="path1010" />
    <path
       d="M 113.89979,9.2123605 V 36.325461 h -7.36078 V 9.2123605 Z"
       style="font-size:46.3483px;font-family:Inter;-inkscape-font-specification:'Inter, @wght=900';font-variation-settings:'wght' 900;fill:#000000;fill-opacity:1;stroke-width:27.6489;stroke-linejoin:bevel"
       id="path1012" />
    <path
       d="M 117.39484,36.325461 V 9.2123605 h 7.36078 V 30.394472 h 10.96173 v 5.930989 z"
       style="font-size:46.3483px;font-family:Inter;-inkscape-font-specification:'Inter, @wght=900';font-variation-settings:'wght' 900;fill:#000000;fill-opacity:1;stroke-width:27.6489;stroke-linejoin:bevel"
       id="path1014" />
  </g>
</svg>
